<?xml version="1.0" encoding="utf-8"?>
<!-- Generator: Adobe Illustrator 19.0.1, SVG Export Plug-In . SVG Version: 6.00 Build 0)  -->
<svg version="1.1" id="Layer_1" xmlns="http://www.w3.org/2000/svg" xmlns:xlink="http://www.w3.org/1999/xlink" x="0px" y="0px"
	 viewBox="0 0 704.7 52" style="enable-background:new 0 0 704.7 52;" xml:space="preserve">
<style type="text/css">
	.st0{fill:#FFFFFF;stroke:#165F83;stroke-width:2;stroke-miterlimit:10;}
	.st1{fill:#165F83;}
	.st2{font-family:'Lato-Bold';}
	.st3{font-size:12px;}
</style>
<g>
	<path class="st0" d="M89,51H13C6.4,51,1,45.6,1,39V13C1,6.4,6.4,1,13,1h76c6.6,0,12,5.4,12,12v26C101,45.6,95.6,51,89,51z"/>
	<text transform="matrix(1 0 0 1 27.7175 22.2593)"><tspan x="0" y="0" class="st1 st2 st3">raw data</tspan><tspan x="-4.7" y="14.4" class="st1 st2 st3">from dept.</tspan></text>
</g>
<g>
	<path class="st0" d="M239.7,51h-76c-6.6,0-12-5.4-12-12V13c0-6.6,5.4-12,12-12h76c6.6,0,12,5.4,12,12v26
		C251.7,45.6,246.3,51,239.7,51z"/>
	<text transform="matrix(0.7 0 0 0.7 194.5618 20.7081)" class="st1 st2 st3">etl</text>
	<text transform="matrix(1 0 0 1 181.4915 35.108)" class="st1 st2 st3">schema</text>
</g>
<g>
	<path class="st0" d="M390.4,51h-76c-6.6,0-12-5.4-12-12V13c0-6.6,5.4-12,12-12h76c6.6,0,12,5.4,12,12v26
		C402.4,45.6,397,51,390.4,51z"/>
	<text transform="matrix(1 0 0 1 333.1986 22.2589)"><tspan x="0" y="0" class="st1 st2 st3">staging</tspan><tspan x="-1" y="14.4" class="st1 st2 st3">schema</tspan></text>
</g>
<g>
	<path class="st0" d="M541,51h-76c-6.6,0-12-5.4-12-12V13c0-6.6,5.4-12,12-12h76c6.6,0,12,5.4,12,12v26C553,45.6,547.6,51,541,51z"
		/>
	<text transform="matrix(1 0 0 1 480.9393 22.2589)"><tspan x="0" y="0" class="st1 st2 st3">features</tspan><tspan x="1.9" y="14.4" class="st1 st2 st3">schema</tspan></text>
</g>
<g>
	<path class="st0" d="M691.7,51h-76c-6.6,0-12-5.4-12-12V13c0-6.6,5.4-12,12-12h76c6.6,0,12,5.4,12,12v26
		C703.7,45.6,698.3,51,691.7,51z"/>
	<text transform="matrix(1 0 0 1 635.8899 22.2589)"><tspan x="0" y="0" class="st1 st2 st3">results</tspan><tspan x="-2.4" y="14.4" class="st1 st2 st3">schema</tspan></text>
</g>
<polygon class="st1" points="114.7,12.6 138,26 114.7,39.4 "/>
<polygon class="st1" points="265.4,12.6 288.7,26 265.4,39.4 "/>
<polygon class="st1" points="416.1,12.6 439.3,26 416.1,39.4 "/>
<polygon class="st1" points="566.7,12.6 590,26 566.7,39.4 "/>
</svg>
